<svg xmlns="http://www.w3.org/2000/svg" viewBox="0 0 486.8 486.8" height="64" width="64"><path d="M316 90a54 54 0 100 108 54 54 0 000-108zm0 96a42 42 0 110-84 42 42 0 010 84z"/><path d="M442 116h-13c-3-11-7-22-14-32l10-10c7-7 7-18 0-25l-14-14a18 18 0 00-25 0l-9 10c-11-7-22-11-33-14V18c0-10-8-18-18-18h-20c-9 0-17 8-17 18v13c-12 3-23 7-33 14l-10-10a18 18 0 00-25 0l-14 14c-7 7-7 18 0 25l10 10c-6 10-11 21-14 32h-13c-10 0-18 8-18 18v20c0 10 8 17 18 17h13c3 12 8 23 14 33l-10 10c-7 7-7 18 0 25l14 14a18 18 0 0025 0l10-10c10 6 21 11 32 14v13c0 10 8 18 18 18h20c10 0 18-8 18-18v-13c11-3 22-8 32-14l10 10a18 18 0 0025 0l14-14c7-7 7-18 0-25l-10-10c6-10 11-21 14-33h13c10 1 18-7 18-17v-20c0-10-8-18-18-18zm6 38c0 3-3 6-6 6h-18c-3 0-5 2-6 4-2 14-8 26-15 38-2 2-1 5 1 7l12 13c3 2 3 6 0 8l-14 14-4 2-4-2-12-13c-2-2-6-2-8 0-11 7-24 13-38 15-2 1-4 3-4 6v18c0 3-3 6-6 6h-20c-3 0-5-3-5-6v-18c0-3-2-5-5-6-14-2-26-8-38-15l-3-1c-2 0-3 0-4 2l-13 12-4 2-4-2-14-14c-2-2-2-5 0-8l13-12c2-2 2-6 1-8-8-11-13-24-16-38-1-2-3-4-6-4h-18c-3 0-6-3-6-6v-20c0-3 3-5 6-5h18c3 0 5-2 6-5 3-14 8-26 16-38 1-2 1-5-1-7l-13-13c-2-2-2-6 0-8l14-14 4-2 4 2 13 13c2 2 5 2 7 0 12-7 24-13 38-15 3-1 5-3 5-6V18c0-4 2-6 5-6h20c3 0 6 3 6 6v18c0 3 2 5 5 6 13 2 26 8 37 15 2 2 6 1 8-1l12-12 4-2 4 2 14 14c2 2 2 5 0 8l-13 12c-2 2-2 6 0 8 7 11 13 24 15 38 1 2 3 4 6 4h18c4 0 6 3 6 6v20z"/><path d="M377 279c-3-1-7 1-8 4-8 24-22 46-41 64l-2 4v124H152v-40a6 6 0 00-7-6l-45 7c-14 0-26-12-26-27v-58c0-4-3-6-6-6H53c-6 0-11-2-13-6-2-3-2-8 1-14l32-61 1-2v-27A151 151 0 01177 92c3-1 5-4 4-7-2-3-5-5-8-4l-17 7a163 163 0 00-94 148v24l-31 60c-5 9-6 19-1 26 4 7 12 11 23 11h9v52c0 21 17 39 39 39h1l38-6v39c0 3 3 6 6 6h186c3 0 6-3 6-6V354c20-19 34-42 43-68 1-3-1-6-4-7z"/></svg>