<svg viewBox="0 0 128 128" height="64" width="64" xmlns="http://www.w3.org/2000/svg" data-name="Layer 1"><path d="M113.7 23.7l-.8-.9A63.8 63.8 0 0065 0H63a63.8 63.8 0 00-48 23 6.2 6.2 0 00-.5.6 63.8 63.8 0 000 80.8 6.2 6.2 0 00.4.6 63.8 63.8 0 0048.2 23h1.8a63.8 63.8 0 0048-22.8l.8-.9a63.8 63.8 0 000-80.6zM99.5 62.3a106.2 106.2 0 00-4-28 69.6 69.6 0 0016.1-7.6 60.2 60.2 0 0112.9 35.5zM65.7 3.5c10.7 1 20 12.1 25.4 28.3a100.6 100.6 0 01-25.3 3.6zm-3.5 31.9A100.6 100.6 0 0137 31.9C42.3 15.7 51.6 4.7 62.3 3.6zm0 3.5v23.3H32a104.4 104.4 0 013.9-27A104.2 104.2 0 0062.3 39zm0 26.8V89A104.2 104.2 0 0036 92.8a104.4 104.4 0 01-3.9-27zm0 26.7v32c-10.6-1.2-20-12.2-25.3-28.4a100.6 100.6 0 0125.4-3.6zm3.5 0a100.6 100.6 0 0125.4 3.6c-5.4 16.2-14.7 27.2-25.3 28.3zm0-3.5V65.7H96a104.5 104.5 0 01-3.9 27A103.3 103.3 0 0065.8 89zm0-26.8V39a103.3 103.3 0 0026.4-3.8 104.5 104.5 0 013.9 27zM109.3 24a66.2 66.2 0 01-15 6.9A54 54 0 0078 5.1 60.6 60.6 0 01109.3 24zM50.1 5A54 54 0 0033.6 31a67 67 0 01-15-6.9A60.5 60.5 0 0150.1 5.1zM16.4 26.7a69.6 69.6 0 0016.2 7.5 106 106 0 00-4 28h-25a60.2 60.2 0 0112.8-35.5zm12.1 39a106 106 0 004 28 69.2 69.2 0 00-16.1 7.6A60.2 60.2 0 013.5 65.8zM18.6 104a67 67 0 0115-6.9 54 54 0 0016.5 25.8A60.5 60.5 0 0118.6 104zM78 122.9A54 54 0 0094.4 97a66.2 66.2 0 0115 7 60.6 60.6 0 01-31.5 18.8zm33.7-21.6a69.6 69.6 0 00-16.2-7.5 106.2 106.2 0 004-28h25a60.2 60.2 0 01-12.8 35.5z"/></svg>