<svg xmlns="http://www.w3.org/2000/svg" viewBox="0 0 60 60" width='56' height='62'><path d="M35.5 31a1 1 0 00-1 1v14h-30V8h30v14a1 1 0 102 0V4.4c0-2.4-2-4.4-4.4-4.4H6.9C4.5 0 2.5 2 2.5 4.4v51.2c0 2.4 2 4.4 4.4 4.4h25.2c2.4 0 4.4-2 4.4-4.4V32c0-.6-.4-1-1-1zM6.9 2h25.2c1.3 0 2.4 1 2.4 2.4V6h-30V4.4c0-1.3 1-2.4 2.4-2.4zm25.2 56H6.9c-1.3 0-2.4-1-2.4-2.4V48h30v7.6c0 1.3-1 2.4-2.4 2.4z"/><path d="M19.5 49a4 4 0 100 8 4 4 0 000-8zm0 6a2 2 0 110-4 2 2 0 010 4zM15.5 5h4a1 1 0 100-2h-4a1 1 0 100 2zM22.5 5h1a1 1 0 100-2h-1a1 1 0 100 2zM56.5 26H20.9l10.3-10.3a1 1 0 10-1.4-1.4l-12 12a1 1 0 000 1.4l12 12a1 1 0 001.4 0c.4-.4.4-1 0-1.4L21 28h35.6a1 1 0 100-2z"/></svg>