<svg xmlns="http://www.w3.org/2000/svg" viewBox="0 0 470.9 470.9" height="64" width="64"><path d="M390 67c0-3-3-6-6-6-4 0-6 3-6 6v27l-4-4c-80-78-208-76-287 4a6 6 0 109 8c74-75 195-77 270-3l4 4h-27c-3 0-6 3-6 6s3 6 6 6l42-1c3 0 6-2 5-6V67zM378 369c-3-3-7-3-9 0a190 190 0 01-270 3l-4-4h27c3 0 6-3 6-6 0-4-3-6-6-6H80c-3 0-6 3-5 6v42c0 3 3 6 6 6s6-3 6-7v-26l4 4c38 37 88 57 141 57h3c54 0 105-22 143-61 2-2 2-6 0-8zM175 294c-20-17-41-28-49-32v-28c5-4 7-10 7-16v-36c0-20-17-37-38-37h-7c-21 0-38 17-38 37v36c0 6 3 12 7 16v28c-8 4-29 16-49 32-5 4-8 11-8 18v24c0 3 3 6 6 6s6-3 6-6v-24c0-4 2-7 4-9 21-17 45-29 49-31 3-2 4-4 4-7v-34c0-2-1-4-3-5-2-2-4-5-4-8v-36c0-14 12-25 26-25h8c14 0 25 11 25 25v36c0 3-1 6-4 8-2 1-3 3-3 5v34c0 3 2 5 4 7 5 2 28 13 49 31 3 2 4 5 4 8v25c0 3 3 6 6 6s6-3 6-6v-25c0-6-3-13-8-17zM463 294c-20-16-41-28-49-32v-28c4-4 7-10 7-16v-36c0-20-17-37-38-37h-7c-21 0-38 17-38 37v36c0 6 2 12 7 16v28c-8 4-29 16-49 32-5 4-8 11-8 18v24c0 3 2 6 6 6s6-3 6-6v-24c0-4 1-7 4-9 21-17 44-29 49-31 2-2 4-4 4-7v-34c0-2-1-4-3-5-3-2-4-5-4-8v-36c0-14 11-25 25-25h8c14 0 26 11 26 25v36c0 3-2 6-5 8l-2 5v34c0 3 1 5 4 7 4 2 27 13 49 31 2 2 4 5 4 8v25c0 3 3 6 6 6s6-3 6-6v-24c0-7-3-14-8-18z"/></svg>